#!OML:ASF H:\Pregnant\Project 1\Capture day 1\Session 1\femalepreg.ASF
:FULLY-SPECIFIED
:DEGREES
1091
root -5.33627 15.9013 -21.0133 20.646 -22.3853 355.159
lowerback -9.10661 1.6536 9.32342
upperback -7.02718 1.51648 2.15438
thorax -2.10115 0.431947 -2.85885
lowerneck -22.877 5.34047 6.0845
upperneck 30.3189 7.1034 -4.98683
head 14.7546 3.00062 -1.71597
rclavicle -3.46941e-015 2.78299e-014
rhumerus -29.0389 -7.38318 -76.3944
rradius 28.184
rwrist -6.96381
rhand -17.6202 -14.7076
rfingers 7.12502
rthumb 8.63682 -44.5109
lclavicle -3.46941e-015 2.78299e-014
lhumerus -37.916 -2.42487 83.0113
lradius 32.659
lwrist 39.039
lhand -11.7248 -3.06054
lfingers 7.12502
lthumb 14.3222 26.4255
rfemur -15.407 5.96969 29.6332
rtibia 28.3131
rfoot -18.5627 -20.1321
rtoes -25.8421
lfemur -51.6288 -9.38665 -15.5061
ltibia 23.843
lfoot -0.0322879 1.03522
ltoes -22.2747
1092
root -5.39319 15.89 -20.9034 20.6994 -22.2582 355.191
lowerback -9.37309 1.62407 8.90379
upperback -7.11305 1.47917 2.04423
thorax -2.04978 0.425831 -2.73999
lowerneck -22.663 5.29591 6.06035
upperneck 30.2564 7.02708 -4.90404
head 14.6687 2.98204 -1.69615
rclavicle -1.17298e-014 -2.22639e-014
rhumerus -29.6639 -7.23268 -76.5937
rradius 28.0661
rwrist -6.84847
rhand -17.3493 -14.6833
rfingers 7.12502
rthumb 8.89825 -44.4757
lclavicle -1.17298e-014 -2.22639e-014
lhumerus -37.9925 -2.39518 83.0311
lradius 32.691
lwrist 39.0431
lhand -11.7148 -3.09378
lfingers 7.12502
lthumb 14.3318 26.3915
rfemur -14.8645 6.06029 29.6636
rtibia 28.1432
rfoot -18.455 -20.1261
rtoes -26.5617
lfemur -51.4733 -9.3956 -15.6295
ltibia 24.0224
lfoot 0.408965 0.306005
ltoes -22.7511
1093
root -5.44975 15.8798 -20.791 20.7388 -22.1403 355.209
lowerback -9.62219 1.58265 8.48776
upperback -7.21074 1.43059 1.95068
thorax -2.02221 0.412982 -2.60694
lowerneck -22.3873 5.25902 6.0308
upperneck 30.1856 6.96874 -4.82518
head 14.5673 2.97093 -1.67454
rclavicle -2.12482e-014 -2.70347e-014
rhumerus -30.3148 -7.00125 -76.7927
rradius 27.9295
rwrist -6.71904
rhand -17.0476 -14.6624
rfingers 7.12502
rthumb 9.1894 -44.4422
lclavicle -2.12482e-014 -2.70347e-014
lhumerus -38.1294 -2.30809 83.048
lradius 32.7176
lwrist 39.0509
lhand -11.7296 -3.13791
lfingers 7.12502
lthumb 14.3176 26.3484
rfemur -14.284 6.13442 29.708
rtibia 27.9456
rfoot -18.2871 -20.1043
rtoes -27.3276
lfemur -51.3099 -9.32665 -15.8391
ltibia 24.3436
lfoot 1.04642 -0.475103
ltoes -22.6963
1094
root -5.50582 15.8714 -20.6766 20.7776 -22.0186 355.221
lowerback -9.86458 1.53 8.06856
upperback -7.31702 1.37038 1.86896
thorax -2.00884 0.394009 -2.46085
lowerneck -22.1035 5.22688 5.99053
upperneck 30.1324 6.91945 -4.73619
head 14.472 2.96365 -1.64564
rclavicle 7.00778e-014 -1.63003e-014
rhumerus -30.9678 -6.71675 -76.994
rradius 27.7621
rwrist -6.56673
rhand -16.7246 -14.6575
rfingers 7.12502
rthumb 9.5011 -44.4233
lclavicle 7.00778e-014 -1.63003e-014
lhumerus -38.2992 -2.19073 83.0693
lradius 32.7282
lwrist 39.081
lhand -11.8182 -3.2173
lfingers 7.12502
lthumb 14.2322 26.2751
rfemur -13.6889 6.1939 29.7633
rtibia 27.7255
rfoot -18.0529 -20.0745
rtoes -28.1247
lfemur -51.1706 -9.21927 -16.1016
ltibia 24.7813
lfoot 1.85228 -1.31218
ltoes -21.9417
1095
root -5.56132 15.8652 -20.5601 20.8168 -21.8913 355.234
lowerback -10.1257 1.476 7.65672
upperback -7.40781 1.30698 1.77385
thorax -1.96859 0.374392 -2.33269
lowerneck -21.8746 5.19482 5.95374
upperneck 30.1105 6.857 -4.6177
head 14.4007 2.95394 -1.60724
rclavicle 3.92165e-014 9.54166e-015
rhumerus -31.5791 -6.44964 -77.216
rradius 27.548
rwrist -6.36716
rhand -16.4092 -14.6643
rfingers 7.12502
rthumb 9.80539 -44.416
lclavicle 3.92165e-014 9.54166e-015
lhumerus -38.4463 -2.07948 83.0759
lradius 32.7108
lwrist 39.1293
lhand -11.9493 -3.33686
lfingers 7.12502
lthumb 14.1059 26.1644
rfemur -13.0957 6.24503 29.8201
rtibia 27.5033
rfoot -17.7512 -20.0438
rtoes -28.9645
lfemur -51.0616 -9.1255 -16.3755
ltibia 25.2943
lfoot 2.71757 -2.13345
ltoes -20.5887
1096
root -5.61616 15.8614 -20.4415 20.8559 -21.7605 355.258
lowerback -10.4083 1.42826 7.25789
upperback -7.47578 1.2499 1.64531
thorax -1.89098 0.358594 -2.24564
lowerneck -21.7338 5.16249 5.9509
upperneck 30.1262 6.76978 -4.47581
head 14.3642 2.93893 -1.5686
rclavicle 2.50469e-014 -1.03368e-014
rhumerus -32.1392 -6.2312 -77.476
rradius 27.2894
rwrist -6.11757
rhand -16.1076 -14.6824
rfingers 7.12502
rthumb 10.0963 -44.4201
lclavicle 2.50469e-014 -1.03368e-014
lhumerus -38.5451 -2.024 83.0623
lradius 32.658
lwrist 39.2137
lhand -12.1268 -3.56624
lfingers 7.12502
lthumb 13.9348 25.9468
rfemur -12.528 6.29049 29.8674
rtibia 27.3162
rfoot -17.4073 -20.002
rtoes -29.7956
lfemur -50.976 -9.08479 -16.6312
ltibia 25.8372
lfoot 3.53262 -2.8625
ltoes -18.8589
